<?xml version="1.0" encoding="UTF-8"?>
<!DOCTYPE svg PUBLIC "-//W3C//DTD SVG 1.1//EN" "http://www.w3.org/Graphics/SVG/1.1/DTD/svg11.dtd">
<svg xmlns="http://www.w3.org/2000/svg" version="1.1" width="64px" height="64px" style="shape-rendering:geometricPrecision; text-rendering:geometricPrecision; image-rendering:optimizeQuality; fill-rule:evenodd; clip-rule:evenodd" xmlns:xlink="http://www.w3.org/1999/xlink">
<g><path style="opacity:0.873" fill="#16afb8" d="M 48.5,8.5 C 48.2172,9.28913 47.7172,9.9558 47,10.5C 46.0228,9.22641 45.1894,9.22641 44.5,10.5C 35.2393,6.64846 26.2393,7.31512 17.5,12.5C 15.484,11.8224 13.484,11.1557 11.5,10.5C 11.1667,9.16667 10.8333,9.16667 10.5,10.5C 8.90097,10.2322 7.56764,10.5655 6.5,11.5C 3.78324,8.76291 2.4499,5.42957 2.5,1.5C 7.70058,2.514 12.5339,4.514 17,7.5C 24.0174,3.69292 31.5174,2.52625 39.5,4C 43.0353,4.66326 46.0353,6.16326 48.5,8.5 Z"/></g>
<g><path style="opacity:0.939" fill="#15aab3" d="M 48.5,8.5 C 51.8333,9.83333 54.1667,12.1667 55.5,15.5C 53.5588,15.1307 51.7255,14.464 50,13.5C 49.6012,13.7284 49.4346,14.0618 49.5,14.5C 47.246,13.8763 45.5794,12.543 44.5,10.5C 45.1894,9.22641 46.0228,9.22641 47,10.5C 47.7172,9.9558 48.2172,9.28913 48.5,8.5 Z"/></g>
<g><path style="opacity:0.976" fill="#17abb4" d="M 10.5,10.5 C 10.8333,10.5 11.1667,10.5 11.5,10.5C 11.5,11.1667 11.5,11.8333 11.5,12.5C 10.7893,14.8418 9.45598,15.1751 7.5,13.5C 6.66175,13.1583 6.32842,12.4916 6.5,11.5C 7.56764,10.5655 8.90097,10.2322 10.5,10.5 Z"/></g>
<g><path style="opacity:0.914" fill="#15a5af" d="M 11.5,12.5 C 13.539,13.911 14.539,15.911 14.5,18.5C 13.7784,18.9175 13.2784,19.5842 13,20.5C 11.5993,18.8078 9.76595,18.1412 7.5,18.5C 8.83333,16.8333 8.83333,15.1667 7.5,13.5C 9.45598,15.1751 10.7893,14.8418 11.5,12.5 Z"/></g>
<g><path style="opacity:0.921" fill="#16a6af" d="M 55.5,15.5 C 56.9063,15.9731 57.573,16.9731 57.5,18.5C 57.5299,19.4972 57.0299,20.1639 56,20.5C 54.8615,20.0109 53.6948,19.6775 52.5,19.5C 51.2485,17.9991 50.2485,16.3325 49.5,14.5C 49.4346,14.0618 49.6012,13.7284 50,13.5C 51.7255,14.464 53.5588,15.1307 55.5,15.5 Z"/></g>
<g><path style="opacity:0.955" fill="#15a1aa" d="M 7.5,18.5 C 9.76595,18.1412 11.5993,18.8078 13,20.5C 13.2784,19.5842 13.7784,18.9175 14.5,18.5C 14.2872,21.4509 14.9539,24.1175 16.5,26.5C 13.1538,24.6764 9.48718,24.0097 5.5,24.5C 5.59495,22.2143 6.26162,20.2143 7.5,18.5 Z"/></g>
<g><path style="opacity:0.978" fill="#15a1aa" d="M 48.5,24.5 C 44.4815,24.3741 40.4815,24.3741 36.5,24.5C 36.2965,22.6096 36.9632,21.1096 38.5,20C 41.8168,19.5017 45.1501,19.335 48.5,19.5C 48.5,21.1667 48.5,22.8333 48.5,24.5 Z"/></g>
<g><path style="opacity:0.868" fill="#15a0a9" d="M 20.5,19.5 C 25.1863,20.9213 25.853,23.5879 22.5,27.5C 20.9462,25.0671 20.2796,22.4005 20.5,19.5 Z"/></g>
<g><path style="opacity:0.788" fill="#159fa8" d="M 57.5,18.5 C 59.4725,21.0836 60.4725,24.0836 60.5,27.5C 58.7085,27.366 57.0418,27.6993 55.5,28.5C 55.3531,25.2084 54.3531,22.2084 52.5,19.5C 53.6948,19.6775 54.8615,20.0109 56,20.5C 57.0299,20.1639 57.5299,19.4972 57.5,18.5 Z"/></g>
<g><path style="opacity:0.997" fill="#159ca4" d="M 5.5,24.5 C 9.48718,24.0097 13.1538,24.6764 16.5,26.5C 16.5,27.8333 16.5,29.1667 16.5,30.5C 12.5711,30.5151 8.57107,30.1818 4.5,29.5C 4.21552,27.5853 4.54885,25.9187 5.5,24.5 Z"/></g>
<g><path style="opacity:1" fill="#159ca4" d="M 48.5,24.5 C 48.5,26.5 48.5,28.5 48.5,30.5C 44.8513,29.2014 41.1846,29.2014 37.5,30.5C 36.4777,30.1445 35.811,29.4778 35.5,28.5C 35.4326,27.0413 35.7659,25.7079 36.5,24.5C 40.4815,24.3741 44.4815,24.3741 48.5,24.5 Z"/></g>
<g><path style="opacity:0.998" fill="#1597a0" d="M 4.5,29.5 C 8.57107,30.1818 12.5711,30.5151 16.5,30.5C 16.5,31.8333 16.5,33.1667 16.5,34.5C 12.7111,34.6757 8.71114,34.6757 4.5,34.5C 4.5,32.8333 4.5,31.1667 4.5,29.5 Z"/></g>
<g><path style="opacity:0.991" fill="#14979f" d="M 35.5,28.5 C 35.811,29.4778 36.4777,30.1445 37.5,30.5C 41.1846,29.2014 44.8513,29.2014 48.5,30.5C 48.5,32.1667 48.5,33.8333 48.5,35.5C 41.8644,35.6458 35.1977,35.6458 28.5,35.5C 30.1233,32.5091 32.4567,30.1757 35.5,28.5 Z"/></g>
<g><path style="opacity:0.993" fill="#1598a1" d="M 60.5,27.5 C 60.5,29.8333 60.5,32.1667 60.5,34.5C 58.901,34.7678 57.5676,34.4345 56.5,33.5C 56.3713,31.7839 56.038,30.1172 55.5,28.5C 57.0418,27.6993 58.7085,27.366 60.5,27.5 Z"/></g>
<g><path style="opacity:0.979" fill="#14929a" d="M 4.5,34.5 C 8.71114,34.6757 12.7111,34.6757 16.5,34.5C 16.5,36.8333 16.5,39.1667 16.5,41.5C 13.4364,40.4381 10.4364,40.4381 7.5,41.5C 6.81815,40.7573 6.15149,40.0906 5.5,39.5C 4.54885,38.0813 4.21552,36.4147 4.5,34.5 Z"/></g>
<g><path style="opacity:0.861" fill="#149199" d="M 56.5,33.5 C 57.5676,34.4345 58.901,34.7678 60.5,34.5C 60.2766,38.1621 59.2766,41.4954 57.5,44.5C 56.3346,42.8906 55.0012,42.5573 53.5,43.5C 54.5113,40.0596 55.5113,36.7263 56.5,33.5 Z"/></g>
<g><path style="opacity:0.959" fill="#149199" d="M 28.5,35.5 C 35.1977,35.6458 41.8644,35.6458 48.5,35.5C 50.8176,37.1852 51.8176,39.5185 51.5,42.5C 49.6616,42.9769 47.8283,43.3103 46,43.5C 45.2917,42.6195 44.4584,41.9528 43.5,41.5C 43.2914,40.0783 42.7914,38.745 42,37.5C 41.5172,38.448 41.3505,39.448 41.5,40.5C 40.5416,40.9528 39.7083,41.6195 39,42.5C 38,41.8333 37,41.1667 36,40.5C 33.8377,40.9402 31.671,41.2735 29.5,41.5C 28.8182,40.7573 28.1515,40.0906 27.5,39.5C 28.2341,38.2921 28.5674,36.9587 28.5,35.5 Z M 43.5,41.5 C 42.6726,42.4387 42.0059,42.1054 41.5,40.5C 41.3505,39.448 41.5172,38.448 42,37.5C 42.7914,38.745 43.2914,40.0783 43.5,41.5 Z"/></g>
<g><path style="opacity:0.973" fill="#138b93" d="M 5.5,39.5 C 6.15149,40.0906 6.81815,40.7573 7.5,41.5C 10.4364,40.4381 13.4364,40.4381 16.5,41.5C 20.7833,44.4439 24.45,43.7772 27.5,39.5C 28.1515,40.0906 28.8182,40.7573 29.5,41.5C 31.671,41.2735 33.8377,40.9402 36,40.5C 37,41.1667 38,41.8333 39,42.5C 39.7083,41.6195 40.5416,40.9528 41.5,40.5C 42.0059,42.1054 42.6726,42.4387 43.5,41.5C 44.4584,41.9528 45.2917,42.6195 46,43.5C 47.8283,43.3103 49.6616,42.9769 51.5,42.5C 51.4088,44.6977 52.0755,45.0311 53.5,43.5C 55.0012,42.5573 56.3346,42.8906 57.5,44.5C 57.573,46.0269 56.9063,47.0269 55.5,47.5C 54.7784,47.9175 54.2784,48.5842 54,49.5C 41.5996,49.1554 29.5996,49.1554 18,49.5C 15.1303,48.9073 12.297,48.2407 9.5,47.5C 7.12695,45.4208 5.79362,42.7541 5.5,39.5 Z"/></g>
<g><path style="opacity:0.971" fill="#13868d" d="M 9.5,47.5 C 12.297,48.2407 15.1303,48.9073 18,49.5C 29.5996,49.1554 41.5996,49.1554 54,49.5C 54.2784,48.5842 54.7784,47.9175 55.5,47.5C 56.5294,49.5168 57.5294,51.5168 58.5,53.5C 49.9149,53.8166 41.4149,53.4832 33,52.5C 27.4003,53.1464 21.9003,53.8131 16.5,54.5C 13.1667,53.1667 10.8333,50.8333 9.5,47.5 Z"/></g>
<g><path style="opacity:0.961" fill="#138188" d="M 58.5,53.5 C 60.0739,55.1016 60.7406,57.1016 60.5,59.5C 56.1749,59.0189 52.3415,57.3523 49,54.5C 44.3883,58.37 39.055,60.0367 33,59.5C 26.7402,59.9103 21.2402,58.2436 16.5,54.5C 21.9003,53.8131 27.4003,53.1464 33,52.5C 41.4149,53.4832 49.9149,53.8166 58.5,53.5 Z"/></g>
</svg>
