<svg id="gasless-night-inactive_2" viewBox="0 0 32 32" fill="none" xmlns="http://www.w3.org/2000/svg">
<g clip-path="url(#clip0_22252_380968)">
<path fill-rule="evenodd" clip-rule="evenodd" d="M2.97388 1.11955C2.58506 0.910188 2.10494 0.980655 1.79267 1.29292C1.48041 1.60518 1.40994 2.0853 1.61931 2.47413L4.77859 8.34136C3.33776 10.5424 2.49978 13.1746 2.49978 16C2.49978 23.732 8.7678 30 16.4998 30C19.6319 30 22.5257 28.9704 24.8583 27.232L28.9631 29.8442C29.3586 30.0958 29.8757 30.039 30.2071 29.7076C30.5386 29.3762 30.5953 28.8591 30.3437 28.4636L27.7315 24.3588C29.4701 22.0262 30.4998 19.1322 30.4998 16C30.4998 8.26804 24.2318 2.00003 16.4998 2.00003C13.6744 2.00003 11.0421 2.838 8.84111 4.27883L2.97388 1.11955ZM6.5735 7.45624L4.96059 4.46083L8.43015 6.32905C8.76731 6.51061 9.17855 6.48367 9.48915 6.25969C11.4612 4.83762 13.8812 4.00003 16.4998 4.00003C23.1272 4.00003 28.4998 9.37261 28.4998 16C28.4998 18.8407 27.5139 21.4487 25.8647 23.504C25.6463 23.0968 25.5745 22.6241 25.666 22.1665L25.8242 21.376C25.9358 20.818 25.8044 20.2389 25.4629 19.7836L24.8996 19.0327C24.6399 18.6864 24.4995 18.2653 24.4995 17.8326V10.9991C24.4995 10.4468 24.0518 9.99907 23.4995 9.99909L21.3202 9.99918C19.7624 9.99924 18.4995 11.2621 18.4995 12.82C18.4995 14.1556 17.7449 15.3766 16.5503 15.9738L16.4995 15.9994L16.4488 16.0248C15.2542 16.622 14.4995 17.843 14.4995 19.1786C14.4995 20.7364 13.2367 21.9993 11.6788 21.9994L9.49958 21.9995C8.94728 21.9995 8.49954 21.5518 8.49954 20.9995V14.166C8.49954 13.7332 8.35916 13.3121 8.09947 12.9659L7.53615 12.2149C7.1947 11.7597 7.06332 11.1806 7.17492 10.6226L7.49954 8.99954L6.5735 7.45624ZM21.6705 18.2688L22.4084 21.5891C22.4449 21.7535 22.2743 21.8867 22.1237 21.8114L21.2418 21.3704C20.8114 21.1552 20.5953 20.664 20.7275 20.2013L21.283 18.2572C21.34 18.0577 21.6255 18.0663 21.6705 18.2688ZM10.5907 10.4092L11.3285 13.7296C11.3735 13.9321 11.6591 13.9406 11.7161 13.7411L12.2715 11.797C12.4037 11.3343 12.1876 10.8431 11.7572 10.6279L10.8754 10.187C10.7247 10.1117 10.5542 10.2448 10.5907 10.4092Z" fill="#6C86AC"/>
</g>
<defs>
<clipPath id="clip0_22252_380968">
<rect width="32" height="32" fill="white" transform="translate(0.5)"/>
</clipPath>
</defs>
</svg>
